<svg xmlns="http://www.w3.org/2000/svg" xmlns:xlink="http://www.w3.org/1999/xlink" viewBox="0 0 13.94 16.1"><defs><style>.cls-1{fill:none;}.cls-2{clip-path:url(#clip-path);}.cls-3{fill:#fff;}</style><clipPath id="clip-path" transform="translate(0 0)"><rect class="cls-1" width="13.94" height="16.1"/></clipPath></defs><g id="Layer_2" data-name="Layer 2"><g id="Layer_2-2" data-name="Layer 2"><g id="Artwork_3" data-name="Artwork 3"><g class="cls-2"><g class="cls-2"><path class="cls-3" d="M13.68,3.87h0L7,0,.27,3.87h0l0,0L0,4v8.05l6.68,3.86,0,0L7,16.1,7.21,16l0,0,6.68-3.86V4Zm-1.31.46-1.78,1-2-3.23Zm-2.9,1.2h-5L7,1.58ZM5.4,2.12,3.35,5.35l-1.78-1ZM1,5.23l1.79,1L1,9.65Zm2.5,1.91,2.51,4.33-4.68-.19Zm2.91,7.45L2.61,12.38l3.84.15ZM7,11,4.43,6.57H9.52Zm.52,3.61V12.53l3.84-.15Zm.41-3.12,2.5-4.34,2.17,4.15Zm5-1.82-1.78-3.4,1.78-1Z" transform="translate(0 0)"/></g></g></g></g></g></svg>