<svg xmlns="http://www.w3.org/2000/svg" viewBox="0 0 117.45 135.86"><defs><style>.cls-1{fill:none;}.cls-2{fill:#fff;}</style></defs><g id="Layer_2" data-name="Layer 2"><g id="d8"><polygon class="cls-1" points="108.03 81.81 108.22 39.03 71.45 17.8 108.03 81.81"/><polygon class="cls-1" points="46.36 18.02 9.49 39.52 9.29 82.19 46.36 18.02"/><polygon class="cls-1" points="104.65 94.43 58.99 14.55 12.6 94.85 104.65 94.43"/><polygon class="cls-1" points="21.65 104 58.43 125.23 95.4 103.67 21.65 104"/><path class="cls-2" d="M59,0,.31,34.22,0,102.13l58.45,33.73,58.69-34.22.31-67.91Zm49,81.81-36.58-64L108.23,39Zm-3.38,12.62-92.05.42L59,14.55ZM46.36,18,9.29,82.18l.2-42.66ZM58.43,125.23,21.65,104l73.75-.33Z"/></g></g></svg>