<svg xmlns="http://www.w3.org/2000/svg" viewBox="0 0 54.53 54.53"><defs><style>.cls-1{fill:#044B7F;}.cls-2,.cls-3{fill:#107E7D;}.cls-3{fill-rule:evenodd;}</style></defs><g id="Layer_2" data-name="Layer 2"><g id="Layer_1-2" data-name="Layer 1"><circle class="cls-1" cx="27.26" cy="27.26" r="27.26"/><path class="cls-2" d="M27,6.32A20.72,20.72,0,0,1,47.75,27.05v.43A20.72,20.72,0,0,1,27,48.21h-.44A20.72,20.72,0,0,1,5.86,27.48v-.43A20.72,20.72,0,0,1,26.58,6.32H27M27,4.2h-.46A22.83,22.83,0,0,0,3.74,27v.47A22.83,22.83,0,0,0,26.57,50.33H27A22.83,22.83,0,0,0,49.87,27.5V27A22.83,22.83,0,0,0,27,4.2Z"/><path class="cls-3" d="M28.24,11.06A11.76,11.76,0,0,1,27,10.88c-1.27-2.22-2.56-1.6-4.27-2.37,4.39,0,7.69,1.63,9,3.88a7.25,7.25,0,0,1,2.6,2.77H34.2c-1.76-1.34-4.46-2-6-3.76A.8.8,0,0,0,28.24,11.06Z"/><path class="cls-3" d="M21.82,10.46c2.27-.1,4,1.1,5.89,2.09v.11c-.67.09-1.11.63-1.79.75-2.22-.93-2.84.06-4.12-.29-2.73-.18-4.71.51-7.15,1.25-3.26,1.4-2.79,1.89-4.56,2.86v-.06h.06c1-2.59,2.77-3.42,4.79-4.13A14.53,14.53,0,0,1,21.82,10.46Z"/><path class="cls-3" d="M37.15,11.09c3.45,1.56,4.59,13.78,3.45,13.42a21.47,21.47,0,0,1-3.37-5c.45-.67,1-.95.77-2.2.72-.75.24-.85.33-1.21.53-.4.11-.67,0-1.16a1.8,1.8,0,0,1,.46-.23l.35.23C38,12.25,37.57,11.58,37.15,11.09Z"/><path class="cls-3" d="M32.11,11.24a8.62,8.62,0,0,1,4,3.14c.44.93.27,1.13.86,1.65.16.72.74,2.2,0,2.63H36.9c-.25-1.13-1.32-1.49-1.63-2.38-.12-1.61-.08-1.24-.85-2.1C33.48,11.77,32.83,12.05,32.11,11.24Z"/><path class="cls-2" d="M28.88,42.79c-.75-1.47-3.48-1.55-6-1.36-1.05-.28-4-.38-5.52-7.41-.1-1.12.72-2.14.51-3-.36-1.63-2.15-2.88-1.13-4.64.36-2.36-.46-1.74,2.86-4.06,2.22.16,1.14.31,3.51-1.19.65-.17,2.05-.43,2.33.3,1.39.54,2.7,1.26,4,1.88l.07,0c-.28-.94-1.33-1.17-2.13-1.62a8.44,8.44,0,0,0-5.87-2.15C14.37,18.57,12,28.26,12.82,23c0-.12,0-.35,0-.35-1.7,2.71-2.6,7-1.18,10.28.25.79,2.05,4.44,2.73,4.59A26.48,26.48,0,0,1,12.75,31a17.74,17.74,0,0,1,.38-2.83,1.63,1.63,0,0,1,1-1c-.22,1.15-.56,4.49.26,5.93,0,.92.44,1.35.89,3,.6,2.85,1.81,5,4.73,5.58l-.88.09c-1.74.35-4.46-1.79-5.91-3.21a3.54,3.54,0,0,1-1-1.68c.38,3,4.38,7.09,8.24,6.69,2.49-.62,6.85-2.33,8.44,1.37a2.28,2.28,0,0,0,.84.62c.23,0,.37,0,.46-.15C28.94,44.85,30.44,44.67,28.88,42.79Z"/><path class="cls-3" d="M7.84,29.37a12.65,12.65,0,0,1,.77-6.15,12.88,12.88,0,0,1,2.8-4.93c1.3-1.56,2.28-1.41,3.43-2a17.41,17.41,0,0,1,4.1-1.89l.52.06a.61.61,0,0,1,.12.4c-.11.16,0,.41,0,.58a6.77,6.77,0,0,0,2.23-.31c3.72-.79,7.15.4,8.94,3.34,2.59,4.17,2.17,5.7.49,8.22.47-5.09-3.45-4.83-4.6-6.4-2.35-2.48-4-2.89-7-2.21s-5.2,1.59-6.4,4c-.3-.71.29-1.93.81-2.55-3.34,1.23-4.68,9.21-4.38,11.62a57.16,57.16,0,0,0,2.3,8H11.9S9.26,37.18,7.84,29.37Z"/><path class="cls-3" d="M27.26,26.31c-7,0-6,5.83-7.79,4.8-3.71-2.87-2.6-9.31,2.74-7.72a.79.79,0,0,0,.56-.21c1.16-1.58,3.21-.41,4.84,0,1.89.48,2.82,1.48,2.8,3.38.71,2,0,2.08,0,3.33h-.46C28.5,27.83,29.68,27.32,27.26,26.31Z"/><path class="cls-2" d="M45.68,22.4c-1.23.77-.17,1.52-2,4.77h-.12c.5-3.11,1.06-2.19-.12-8.9-.41.76.43,2-.69,4.22v.12c-.46-.38.13-2.92-.35-5.72-.4-1.66-2.29-6.37-5.2-6.36,4.87,1.65,5.17,11.7,4.74,17.86-.38-.56-.24-2.11-.58-2.66a.71.71,0,0,0-.11-.46h-.18c-.09.49-.07,1.51-.4,1.84a3.77,3.77,0,0,0-1.1-1.44c-.58,0-.83.56-.87,1.1-.36-.63,0-1.6-1.38-3.53-2.34-.54-1.71,0-2.89-2.54,0-.45.16-.46.46-.58.18-1-1.64-4.05-2.89-4.33,1.07,1.12,1.31,2.72,2,4-.82,1.43-.63.47-.06,3.2.25,1.8-.66.17-1.62,4.71-.55,1-.8-.16-1.12,1.69-.41,1.07-1.56.14-.85,3.52,0,.06,0,0-.05.12h-.06c-1.58-1.3-.5-1.37-1.48-3.67-.3-.59-.82-.78-1.39-1.38s-.51-.86-1.87-.62c.57.18,1.18.45,1.1,1.1a.46.46,0,0,0,.33.4c2.47.75,1.14,3.53.94,5.26l.29.41c.4.11,1.09.4,1.44.06l.18,0c.11.21.15,1.42.57,1.16h.23a3.3,3.3,0,0,0,.64,1.27c.66.06,1.7.71,2.25.12a1.83,1.83,0,0,1-1.44-1c.48-.3,1,.13,1.39-.46A4.46,4.46,0,0,1,31.54,35a3.22,3.22,0,0,0,0-1c.1-.11.2-.23.29-.35h.23c-.05-.26-.16-.3-.35-.41.4-.28.54.2,1.42-.65A.9.9,0,0,1,32,32.31c.33-1.65,1.62-2.31,2.72-3.52.24-.79.19-1.9,1-2.27.33-.24.29-1,.59-1.26.81,1.82.19,1.68-.12,4a8.73,8.73,0,0,1,.69,4,2.74,2.74,0,0,1-.63.11c0,.21.08.28.29.35l-.06.17a3.09,3.09,0,0,1-.46.12v.17a1.9,1.9,0,0,0,.52.35v.06a.81.81,0,0,0-.29.29,5,5,0,0,1-1.56,0c.1.54,1.43,1,2.19.92,0,0,0,0-.11.06.09.45.36.28.52.52-.06.42.24.7.46,1,.06.66-1.81.35-2.14.35a3,3,0,0,0,3.36.46c.85.72,1-.31,1.5,1a1.44,1.44,0,0,0,1.21-.52c-.36-1-.3-1,0-2.1-.2-1.72.75-4.92,2.24-7.49.81-1.59,2.17-3.38,1.56-5.34A3.61,3.61,0,0,1,45.68,22.4Zm-6.29,9.2c-.83-.49-.22-2.38.68-3.44C40.88,28.55,40.88,29.3,39.39,31.6Z"/><path class="cls-3" d="M24.08,43.69a6.85,6.85,0,0,1,3.17.58c.13,0-3.43.5-4-.64A4.65,4.65,0,0,0,24.08,43.69Z"/></g></g></svg>