<svg xmlns="http://www.w3.org/2000/svg" viewBox="0 0 8.79 10.71"><defs><style>.cls-1{fill:#fff;}</style></defs><g id="Layer_2" data-name="Layer 2"><g id="Edit"><g id="Layer_2-2" data-name="Layer 2"><path class="cls-1" d="M7.86,1.13H.93A.93.93,0,0,0,0,2.24l1.41,7.7a.92.92,0,0,0,.91.77H6.45a.92.92,0,0,0,.91-.77l1.41-7.7A.93.93,0,0,0,7.86,1.13ZM3,9.7H2.94a.32.32,0,0,1-.3-.25l-1.29-7a.3.3,0,0,1,.24-.36A.31.31,0,0,1,2,2.34l1.29,7A.29.29,0,0,1,3,9.7ZM7.56,2.45l-1.3,7a.32.32,0,0,1-.3.25H5.9a.31.31,0,0,1-.24-.36l1.3-7a.3.3,0,0,1,.35-.25A.32.32,0,0,1,7.56,2.45Z"/><path class="cls-1" d="M4.39,0a.8.8,0,0,0-.8.8H5.2A.8.8,0,0,0,4.39,0Z"/></g></g></g></svg>