<?xml version="1.0" encoding="UTF-8"?>
<svg xmlns:xlink="http://www.w3.org/1999/xlink" xmlns="http://www.w3.org/2000/svg" id="screenshot" viewBox="-0.2381446452882301 -0.3276399906170582 25.391146693225892 18.327640342539212" width="25.391146693225892" height="18.327640342539212">
  <g id="shape-0d0302b0-c18e-11eb-b2e4-7b70d3885ac1">
    <g>
      <g id="shape-0d060ff0-c18e-11eb-b2e4-7b70d3885ac1">
        <path d="M24.998715250304485,8.103892800593826C22.609478937633867,3.0883378958333196,17.875088163080363,-0.32763954745792034,12.457428701324716,-0.32763954745792034C7.039769239568159,-0.32763954745792034,2.304937646507369,3.0924288867832956,-0.08522438502905061,8.103892800593826C-0.16924439263038948,8.32071532094642,-0.23814432541030328,8.631630633150166,-0.23814432541030328,8.836180180652605C-0.23814432541030328,9.039788800236579,-0.16928847448070883,9.35164504035879,-0.08522438502905061,9.532875939445944C2.306260102030592,14.584022465472003,7.039769239568159,17.99999990876313,12.457428701324716,17.99999990876313C17.875088163080363,17.99999990876313,22.609478937633867,14.580749672711818,24.998715250304485,9.568467560711383C25.08247076680027,9.35164504035879,25.153001728059735,9.00391080960469,25.153001728059735,8.836180180652605C25.153001728059735,8.631630633150166,25.08247076680027,8.32071532094642,24.998715250304485,8.103892800593826ZZM18.805215214691998,8.836180180652605C18.805215214691998,12.086472490466804,15.9632582944364,14.727207148723664,12.461836886403034,14.727207148723664C8.957329748815482,14.727207148723664,6.109642187956979,12.088517985941849,6.109642187956979,8.836180180652605C6.109642187956979,5.583842375363361,8.9529215637358,2.9451532125815447,12.457428701324716,2.9451532125815447C15.961935838913178,2.9451532125815447,18.805215214691998,5.583842375363361,18.805215214691998,8.836180180652605ZZM12.457428701324716,4.908828868605269C12.356040444513837,4.908828868605269,12.21057033691568,4.925192832405514,12.082732969632616,4.941556796205646C12.316366778805332,5.317927963610259,12.457428701324716,5.751573004315333,12.457428701324716,6.21794597262101C12.457428701324716,7.664111273463504,11.194483676269556,8.836180180652605,9.636190250939308,8.836180180652605C9.133657151964144,8.836180180652605,8.626715867910207,8.701177479301009,8.256428321297335,8.488445949898505C8.243203766061015,8.611175678399945,8.225571025745921,8.737996397851475,8.225571025745921,8.836180180652605C8.225571025745921,10.967586465628301,10.121090609598923,12.76353149269994,12.457428701324716,12.76353149269994C14.793766793050054,12.76353149269994,16.689286376903055,11.004814483273776,16.689286376903055,8.836589279747614C16.689286376903055,6.668364076221451,14.754093127342003,4.908828868605269,12.457428701324716,4.908828868605269ZZ" style="fill: rgb(255, 255, 255); fill-opacity: 0.4;"></path>
      </g>
    </g>
  </g>
</svg>
