<?xml version="1.0" encoding="UTF-8" standalone="no"?>
<!DOCTYPE svg PUBLIC "-//W3C//DTD SVG 1.1//EN" "http://www.w3.org/Graphics/SVG/1.1/DTD/svg11.dtd">
<svg version="1.1" xmlns="http://www.w3.org/2000/svg" xmlns:xlink="http://www.w3.org/1999/xlink" preserveAspectRatio="xMidYMid meet" viewBox="0 0 640 640" width="640" height="640">
    <defs>
        <path d="M312.7 94.23C312.7 94.23 312.7 94.23 312.7 94.23C312.7 152.7 312.7 185.19 312.7 191.68C312.7 191.68 312.7 191.68 312.7 191.68C252.74 191.68 219.43 191.68 212.77 191.68C212.77 191.68 212.77 191.68 212.77 191.68C212.77 133.21 212.77 100.73 212.77 94.23C212.77 94.23 212.77 94.23 212.77 94.23C272.73 94.23 306.04 94.23 312.7 94.23Z" id="ad41udSJD"></path>
        <path d="M198.18 94.23C151.35 94.23 125.34 94.23 120.14 94.23C108.05 94.24 98.26 103.8 98.24 115.59C98.24 120.66 98.24 146.03 98.24 191.68L198.18 191.68L198.18 94.23Z" id="a3xpyxeuRs"></path>
        <path d="M312.7 205.91C312.7 205.91 312.7 205.91 312.7 205.91C312.7 264.38 312.7 296.87 312.7 303.36C312.7 303.36 312.7 303.36 312.7 303.36C252.74 303.36 219.43 303.36 212.77 303.36C212.77 303.36 212.77 303.36 212.77 303.36C212.77 244.89 212.77 212.41 212.77 205.91C212.77 205.91 212.77 205.91 212.77 205.91C272.73 205.91 306.04 205.91 312.7 205.91Z" id="a1114UNfgU"></path>
        <path d="M198.18 205.91C198.18 205.91 198.18 205.91 198.18 205.91C198.18 264.38 198.18 296.87 198.18 303.36C198.18 303.36 198.18 303.36 198.18 303.36C138.22 303.36 104.91 303.36 98.24 303.36C98.24 303.36 98.24 303.36 98.24 303.36C98.24 244.89 98.24 212.41 98.24 205.91C98.24 205.91 98.24 205.91 98.24 205.91C158.2 205.91 191.52 205.91 198.18 205.91Z" id="gW924LFOi"></path>
        <path d="M441.82 94.23L441.82 191.68L541.76 191.68C541.76 146.03 541.76 120.66 541.76 115.59C541.74 103.8 531.94 94.24 519.85 94.23C519.85 94.23 493.84 94.23 441.82 94.23Z" id="a97knj4"></path>
        <path d="M427.23 94.23C427.23 94.23 427.23 94.23 427.23 94.23C427.23 152.7 427.23 185.19 427.23 191.68C427.23 191.68 427.23 191.68 427.23 191.68C367.27 191.68 333.96 191.68 327.3 191.68C327.3 191.68 327.3 191.68 327.3 191.68C327.3 133.21 327.3 100.73 327.3 94.23C327.3 94.23 327.3 94.23 327.3 94.23C387.26 94.23 420.57 94.23 427.23 94.23Z" id="aV5ECFpZL"></path>
        <path d="M120.14 80C99.99 80.02 83.67 95.94 83.65 115.59C83.65 143.37 83.65 365.6 83.65 393.38C83.65 397.31 86.92 400.49 90.95 400.49C94.98 400.49 98.24 397.31 98.24 393.38C98.24 388.32 98.24 363.06 98.24 317.59L198.18 317.59C198.18 363.06 198.18 388.32 198.18 393.38C198.18 397.31 201.44 400.49 205.47 400.49C209.5 400.49 212.77 397.31 212.77 393.38C212.77 388.32 212.77 363.06 212.77 317.59L312.7 317.59C312.7 325.48 312.7 329.86 312.7 330.74C312.7 334.67 315.97 337.85 320 337.85C324.03 337.85 327.3 334.67 327.3 330.74C327.3 329.86 327.3 325.48 327.3 317.59C365.15 317.59 386.19 317.59 390.39 317.59C394.42 317.59 397.69 314.41 397.69 310.48C397.69 306.55 394.42 303.36 390.39 303.36C386.19 303.36 365.15 303.36 327.3 303.36L327.3 205.91L427.23 205.91C427.23 245.78 427.23 267.93 427.23 272.36C427.23 276.29 430.5 279.48 434.53 279.48C438.56 279.48 441.82 276.29 441.82 272.36C441.82 267.93 441.82 245.78 441.82 205.91L541.76 205.91C541.76 244.01 541.76 265.18 541.76 269.41C541.76 273.34 545.02 276.52 549.05 276.52C553.08 276.52 556.35 273.34 556.35 269.41C556.35 254.03 556.35 130.97 556.35 115.59C556.32 95.94 540 80.02 519.85 80C519.85 80 160.11 80 120.14 80ZM212.77 94.23L312.7 94.23L312.7 191.68L212.77 191.68L212.77 94.23ZM98.24 115.59C98.26 103.8 108.05 94.24 120.14 94.23C125.34 94.23 151.35 94.23 198.18 94.23L198.18 191.68L98.24 191.68C98.24 151.1 98.24 125.73 98.24 115.59ZM98.24 303.36L98.24 205.91L198.18 205.91L198.18 303.36L98.24 303.36ZM312.7 303.36L212.77 303.36L212.77 205.91L312.7 205.91L312.7 303.36ZM327.3 191.68L327.3 94.23L427.23 94.23L427.23 191.68L327.3 191.68ZM441.82 191.68L441.82 94.23C488.64 94.23 514.65 94.23 519.85 94.23C531.94 94.24 541.74 103.8 541.76 115.59C541.76 120.66 541.76 146.03 541.76 191.68L441.82 191.68Z" id="brAmaHWhU"></path>
        <path d="M436.56 300.92C429.4 300.92 423.59 306.58 423.58 313.57C423.58 316.7 423.58 332.37 423.58 360.58C328.29 360.58 275.36 360.58 264.77 360.58C257.61 360.59 251.8 366.25 251.79 373.24C251.79 376.23 251.79 391.22 251.79 418.19C156.5 418.19 103.56 418.19 92.97 418.19C85.81 418.2 80.01 423.87 80 430.85C80 442.5 80 535.69 80 547.34C80.01 554.33 85.81 559.99 92.97 560C138.38 560 501.62 560 547.03 560C554.19 559.99 559.99 554.33 560 547.34C560 523.96 560 336.95 560 313.57C559.99 306.59 554.19 300.92 547.03 300.92C547.03 300.92 447.61 300.92 436.56 300.92Z" id="h6xqBLKy4R"></path>
    </defs>
    <g>
        <g>
            <g>
                <use xlink:href="#ad41udSJD" opacity="1" fill="#000000" fill-opacity="0"></use>
                <g>
                    <use xlink:href="#ad41udSJD" opacity="1" fill-opacity="0" stroke="#000000" stroke-width="1" stroke-opacity="0"></use>
                </g>
            </g>
            <g>
                <use xlink:href="#a3xpyxeuRs" opacity="1" fill="#000000" fill-opacity="0"></use>
                <g>
                    <use xlink:href="#a3xpyxeuRs" opacity="1" fill-opacity="0" stroke="#000000" stroke-width="1" stroke-opacity="0"></use>
                </g>
            </g>
            <g>
                <use xlink:href="#a1114UNfgU" opacity="1" fill="#000000" fill-opacity="0"></use>
                <g>
                    <use xlink:href="#a1114UNfgU" opacity="1" fill-opacity="0" stroke="#000000" stroke-width="1" stroke-opacity="0"></use>
                </g>
            </g>
            <g>
                <use xlink:href="#gW924LFOi" opacity="1" fill="#000000" fill-opacity="0"></use>
                <g>
                    <use xlink:href="#gW924LFOi" opacity="1" fill-opacity="0" stroke="#000000" stroke-width="1" stroke-opacity="0"></use>
                </g>
            </g>
            <g>
                <use xlink:href="#a97knj4" opacity="1" fill="#000000" fill-opacity="0"></use>
                <g>
                    <use xlink:href="#a97knj4" opacity="1" fill-opacity="0" stroke="#000000" stroke-width="1" stroke-opacity="0"></use>
                </g>
            </g>
            <g>
                <use xlink:href="#aV5ECFpZL" opacity="1" fill="#000000" fill-opacity="0"></use>
                <g>
                    <use xlink:href="#aV5ECFpZL" opacity="1" fill-opacity="0" stroke="#000000" stroke-width="1" stroke-opacity="0"></use>
                </g>
            </g>
            <g>
                <use xlink:href="#brAmaHWhU" opacity="1" fill="#878787" fill-opacity="1"></use>
                <g>
                    <use xlink:href="#brAmaHWhU" opacity="1" fill-opacity="0" stroke="#000000" stroke-width="1" stroke-opacity="0"></use>
                </g>
            </g>
            <g>
                <use xlink:href="#h6xqBLKy4R" opacity="1" fill="#d8d8d8" fill-opacity="1"></use>
                    <g><use xlink:href="#h6xqBLKy4R" opacity="1" fill-opacity="0" stroke="#000000" stroke-width="1" stroke-opacity="0"></use>
                </g>
            </g>
        </g>
    </g>
</svg>