<svg xmlns="http://www.w3.org/2000/svg" viewBox="12 12 75 75">
    <path d="M73.16521,21.27029H25.38689a4.36739,4.36739,0,0,0-4.36231,4.36231V73.41092a4.36656,4.36656,0,0,0,4.36231,4.36133H44.07121l-2.89355-.91687a3.73209,3.73209,0,0,1-1.40759-.82728H36.45818V64.08279H44.7636l.07861-.21L43.267,62.33865H36.45818V50.39334H48.40349v1.19635l1.74414.4389V50.39334H51.586L51.006,48.6492h-.8584V36.70389H62.09392v7.22638l1.346,1.44158.39819-.12524V36.70389H75.78337v2.87677a3.732,3.732,0,0,1,.57288,1.08062l1.17126,3.56061V25.6326A4.36738,4.36738,0,0,0,73.16521,21.27029ZM48.40349,34.95975H36.45818V23.01443H48.40349ZM22.76872,25.6326a2.62153,2.62153,0,0,1,2.61817-2.61817H34.714V34.95975H22.76872ZM34.714,48.6492H22.76872V36.70389H34.714Zm0,27.3789H25.38689a2.62068,2.62068,0,0,1-2.61817-2.61718V64.08279H34.714Zm0-13.68945H22.76872V50.39334H34.714ZM48.40349,48.6492H36.45818V36.70389H48.40349Zm1.74414-13.68945V23.01443H62.09392V34.95975Zm13.69043,0V23.01443h9.32715a2.62152,2.62152,0,0,1,2.61816,2.61817v9.32715Z" fill="#878787"/>
    <path d="M75.78337,62.33865H63.99284c-.05224.0376-.10351.07569-.15478.11463a7.58486,7.58486,0,0,0-.73181.62524l-.208.20447a6.65663,6.65663,0,0,0-.68274.7998c-.043.05829-.08057.12018-.12158.17975V76.0281h-.4961l.37586,1.3559c.0354.12763.05969.258.08423.38825h11.1073a4.36655,4.36655,0,0,0,4.3623-4.36133V61.70846l-1.74414-.57568Zm0,11.07227a2.62067,2.62067,0,0,1-2.61816,2.61718H63.83806V64.08279H75.78337Z" fill="#878787"/>
    <path d="M49.1281,74.85037a1.238,1.238,0,0,0-.97461-1.02344l-5.63965-1.1582V70.14725L48.15056,68.989a1.23673,1.23673,0,0,0,.97461-1.02441,22.171,22.171,0,0,1,1.24121-4.623,1.2384,1.2384,0,0,0-.333-1.373l-4.30664-3.82519,1.26074-2.18262,5.4668,1.81738a1.23532,1.23532,0,0,0,1.35449-.39746,22.49954,22.49954,0,0,1,3.38379-3.38574A1.23761,1.23761,0,0,0,57.59,52.64041l-1.81836-5.46973,2.1836-1.26074,3.82226,4.30469a1.24091,1.24091,0,0,0,1.37207.333,22.30762,22.30762,0,0,1,4.625-1.24317,1.238,1.238,0,0,0,1.02344-.97461l1.1582-5.63965h2.52149l1.1582,5.63672a1.23919,1.23919,0,0,0,1.02344.97461,22.09865,22.09865,0,0,1,2.89233.65888V47.38321c-.55054-.14557-1.10412-.27484-1.65991-.38147l-1.19141-5.79883a1.23785,1.23785,0,0,0-1.21289-.98926h-4.541a1.23785,1.23785,0,0,0-1.21289.98926l-1.19141,5.80176a24.85436,24.85436,0,0,0-3.47363.93457l-3.93262-4.42871a1.23563,1.23563,0,0,0-1.54492-.25L53.65837,45.531a1.2383,1.2383,0,0,0-.55566,1.4629l1.87109,5.62792a24.92851,24.92851,0,0,0-2.53808,2.54l-5.625-1.87011a1.239,1.239,0,0,0-1.4629.55566l-2.2705,3.93262a1.23831,1.23831,0,0,0,.25,1.54492L47.758,63.25955a24.73953,24.73953,0,0,0-.93262,3.47363l-5.79882,1.19141a1.23784,1.23784,0,0,0-.98926,1.21289v4.541a1.23785,1.23785,0,0,0,.98926,1.21289l5.80175,1.1914c.10572.551.23438,1.09961.37867,1.64539h2.576A21.91388,21.91388,0,0,1,49.1281,74.85037Z" fill="#d8d8d8"/>
    <path d="M57.801,71.40018A13.414,13.414,0,0,1,77.55168,59.56936V56.82315a15.88366,15.88366,0,0,0-20.90576,20.905H59.392A13.33631,13.33631,0,0,1,57.801,71.40018Z" fill="#d8d8d8"/>
</svg>