<?xml version="1.0" encoding="UTF-8" standalone="no"?>
<svg
   xmlns:dc="http://purl.org/dc/elements/1.1/"
   xmlns:cc="http://creativecommons.org/ns#"
   xmlns:rdf="http://www.w3.org/1999/02/22-rdf-syntax-ns#"
   xmlns:svg="http://www.w3.org/2000/svg"
   xmlns="http://www.w3.org/2000/svg"
   xmlns:sodipodi="http://sodipodi.sourceforge.net/DTD/sodipodi-0.dtd"
   xmlns:inkscape="http://www.inkscape.org/namespaces/inkscape"
   height="25"
   width="25"
   inkscape:version="1.0 (4035a4fb49, 2020-05-01)"
   sodipodi:docname="signout.svg"
   id="svg32"
   xml:space="preserve"
   enable-background="new 0 0 1000 1000"
   viewBox="0 0 25 25"
   y="0px"
   x="0px"
   version="1.1"><defs
   id="defs36" /><sodipodi:namedview
   inkscape:current-layer="svg32"
   inkscape:window-maximized="1"
   inkscape:window-y="-8"
   inkscape:window-x="-8"
   inkscape:cy="9.4302953"
   inkscape:cx="16.005778"
   inkscape:zoom="27.2"
   showgrid="false"
   id="namedview34"
   inkscape:window-height="1017"
   inkscape:window-width="1920"
   inkscape:pageshadow="2"
   inkscape:pageopacity="0"
   guidetolerance="10"
   gridtolerance="10"
   objecttolerance="10"
   borderopacity="1"
   bordercolor="#666666"
   pagecolor="#ffffff" />
<metadata
   id="metadata24"> Svg Vector Icons : http://www.onlinewebfonts.com/icon <rdf:RDF><cc:Work
     rdf:about=""><dc:format>image/svg+xml</dc:format><dc:type
       rdf:resource="http://purl.org/dc/dcmitype/StillImage" /><dc:title></dc:title></cc:Work></rdf:RDF></metadata>
<g
   style="fill:#ffffff"
   transform="matrix(0.02533783,0,0,0.02448979,-0.20567349,0.10811643)"
   id="g30"><path
     style="fill:#ffffff"
     id="path26"
     d="M 500,990 C 379,990.1 257.4,943.6 165.1,851.3 v 0 C 72.8,759 26.3,637.4 26.4,516.4 v 0 C 26.3,395.4 72.8,273.8 165.1,181.5 v 0 c 28.1,-28.1 73.7,-28.1 101.8,0 v 0 c 28.1,28.1 28.1,73.7 0,101.8 v 0 c -64.5,64.5 -96.5,148.5 -96.6,233.1 v 0 c 0.1,84.6 32,168.5 96.6,233.1 v 0 C 331.5,814 415.4,846 500,846 v 0 c 84.6,-0.1 168.5,-32 233.1,-96.5 v 0 C 797.6,684.9 829.6,601 829.6,516.4 v 0 c -0.1,-84.6 -32,-168.5 -96.5,-233.1 v 0 0 C 705,255.2 705,209.6 733.1,181.5 v 0 c 28.1,-28.1 73.7,-28.1 101.8,0 v 0 c 92.3,92.3 138.8,213.9 138.7,334.9 v 0 c 0.1,121 -46.4,242.6 -138.7,334.9 v 0 C 742.7,943.6 621.2,990 500.3,990 v 0 c -0.1,0 -0.2,0 -0.3,0 z" /><path
     style="fill:#ffffff"
     id="path28"
     d="M 428,516.4 V 82 c 0,-39.7 32.2,-72 72,-72 v 0 c 39.8,0 72,32.2 72,72 v 0 434.5 c 0,39.7 -32.2,72 -72,72 v 0 c -39.7,-0.1 -72,-32.3 -72,-72.1 z" /></g>
</svg>
