<?xml version="1.0" encoding="UTF-8" standalone="no"?>
<!DOCTYPE svg PUBLIC "-//W3C//DTD SVG 1.1//EN" "http://www.w3.org/Graphics/SVG/1.1/DTD/svg11.dtd">
<svg width="100%" height="100%" viewBox="0 0 100 100" version="1.1" xmlns="http://www.w3.org/2000/svg" xmlns:xlink="http://www.w3.org/1999/xlink" xml:space="preserve" xmlns:serif="http://www.serif.com/" style="fill-rule:evenodd;clip-rule:evenodd;stroke-linejoin:round;stroke-miterlimit:1.5;">
    <g transform="matrix(1,0,0,1,-0.107254,0.171362)">
        <path d="M21.692,17.137L21.692,25.373" style="fill:none;stroke:white;stroke-width:1px;"/>
    </g>
    <g transform="matrix(1,0,0,1,-0.107254,56.977)">
        <path d="M21.692,17.137L21.692,25.373" style="fill:none;stroke:white;stroke-width:1px;"/>
    </g>
    <g transform="matrix(1,0,0,1,56.6775,0.171362)">
        <path d="M21.692,17.137L21.692,25.373" style="fill:none;stroke:white;stroke-width:1px;"/>
    </g>
    <g transform="matrix(1,0,0,1,56.6775,56.977)">
        <path d="M21.692,17.137L21.692,25.373" style="fill:none;stroke:white;stroke-width:1px;"/>
    </g>
    <g transform="matrix(6.12323e-17,1,-1,6.12323e-17,42.8401,-0.266083)">
        <path d="M21.692,17.137L21.692,25.373" style="fill:none;stroke:white;stroke-width:1px;"/>
    </g>
    <g transform="matrix(6.12323e-17,1,-1,6.12323e-17,42.8401,56.5395)">
        <path d="M21.692,17.137L21.692,25.373" style="fill:none;stroke:white;stroke-width:1px;"/>
    </g>
    <g transform="matrix(6.12323e-17,1,-1,6.12323e-17,99.6249,-0.266083)">
        <path d="M21.692,17.137L21.692,25.373" style="fill:none;stroke:white;stroke-width:1px;"/>
    </g>
    <g transform="matrix(6.12323e-17,1,-1,6.12323e-17,99.6249,56.5395)">
        <path d="M21.692,17.137L21.692,25.373" style="fill:none;stroke:white;stroke-width:1px;"/>
    </g>
</svg>
