<svg xmlns="http://www.w3.org/2000/svg" viewBox="0 0 100 100"><path d="M30.63321,14.36023H18.2268a3.48551,3.48551,0,0,0-3.48086,3.48216v12.4051H30.63321Z" fill="none"/><rect x="32.95291" y="14.36023" width="15.88727" height="15.88727" fill="none"/><rect x="14.74594" y="32.5672" width="15.88727" height="15.88856" fill="none"/><path d="M81.772,14.36023H69.36686V30.24749H85.25413V17.84239A3.48662,3.48662,0,0,0,81.772,14.36023Z" fill="none"/><rect x="32.95291" y="32.5672" width="15.88727" height="15.88856" fill="none"/><rect x="51.15989" y="14.36023" width="15.88727" height="15.88727" fill="none"/><path d="M81.772,12.04052H18.2268a5.80752,5.80752,0,0,0-5.80057,5.80187V63.12863a1.15986,1.15986,0,0,0,2.31971,0V50.77547H30.63321V63.12863a1.15985,1.15985,0,1,0,2.3197,0V50.77547H48.84018v2.14177a1.15986,1.15986,0,0,0,2.31971,0V50.77547H61.19074a1.15985,1.15985,0,0,0,0-2.3197H51.15989V32.5672H67.04715V43.40073a1.15986,1.15986,0,0,0,2.31971,0V32.5672H85.25413V42.91886a1.15985,1.15985,0,0,0,2.3197,0V17.84239A5.80862,5.80862,0,0,0,81.772,12.04052ZM32.95291,14.36023H48.84018V30.24749H32.95291Zm-18.207,3.48216a3.48551,3.48551,0,0,1,3.48086-3.48216H30.63321V30.24749H14.74594Zm0,30.61338V32.5672H30.63321V48.45577Zm34.09424,0H32.95291V32.5672H48.84018Zm2.31971-18.20828V14.36023H67.04715V30.24749Zm18.207,0V14.36023H81.772a3.48662,3.48662,0,0,1,3.48216,3.48216v12.4051Z" fill="#878787"/><path d="M86.09187,48.05573H68.53041a2.06535,2.06535,0,0,0-2.06383,2.06254v7.66308H41.22a2.06647,2.06647,0,0,0-2.06384,2.06384v7.32929H13.9082a2.06535,2.06535,0,0,0-2.06254,2.06383v13.1a7.96267,7.96267,0,0,0,7.954,7.954H80.20039a7.96267,7.96267,0,0,0,7.954-7.954v-32.22A2.06425,2.06425,0,0,0,86.09187,48.05573Z" fill="#d8d8d8"/></svg>