<svg xmlns="http://www.w3.org/2000/svg" viewBox="0 0 100 100"><path d="M48.82511,29.22807a1.15986,1.15986,0,1,0,2.31971,0V14.718H66.78774v-2.3197H18.213a5.80862,5.80862,0,0,0-5.80186,5.80186V60.39386h2.3197V51.13192h14.487a1.15986,1.15986,0,0,0,0-2.31971h-14.487V32.925h14.487a1.15986,1.15986,0,0,0,0-2.31971h-14.487V18.20013A3.48662,3.48662,0,0,1,18.213,14.718H30.61814v14.5101a1.15986,1.15986,0,1,0,2.31971,0V14.718H48.82511Z" fill="#878787"/><path d="M47.22025,41.97274l-11.05879-6.33a.35563.35563,0,0,0-.51986.40175l3.33523,12.298a.35557.35557,0,0,0,.662.06438l2.251-4.55824a.35576.35576,0,0,1,.24694-.19085l4.97873-1.02818A.3556.3556,0,0,0,47.22025,41.97274Z" fill="none"/><path d="M73.52476,56.72118A16.956,16.956,0,0,0,74.75963,54.683a1.19949,1.19949,0,0,0-2.13479-1.09443,14.1955,14.1955,0,0,1-3.27305,4.16851,13.98961,13.98961,0,0,1-2.1511,1.59829l-.00544.00259-.001.00114c-.05228.03061-.10959.05155-.16219.0815A13.44171,13.44171,0,0,1,51.14482,57.639a14.2363,14.2363,0,0,1-2.31971-2.71951,14.59926,14.59926,0,0,1-.7987-1.33089A1.19952,1.19952,0,0,0,45.89155,54.683,17.09956,17.09956,0,0,0,47.097,56.68384L44.2465,58.80142a1.20008,1.20008,0,0,0,1.4318,1.92632l2.9364-2.18146c.06722.0716.14206.13394.21041.20424a16.33438,16.33438,0,0,0,2.11831,1.85213L48.952,63.25973a1.14944,1.14944,0,0,0-.12688.26593,1.23066,1.23066,0,0,0,.36708,1.41313,1.19818,1.19818,0,0,0,1.67906-.24021l.27357-.36505,1.8514-2.47045A15.89953,15.89953,0,0,0,56.089,63.07253l-1.06991,3.56163a1.26019,1.26019,0,0,0,.80373,1.49512,1.22959,1.22959,0,0,0,.34565.05033,1.20033,1.20033,0,0,0,1.14947-.85415l.092-.30628,1.04832-3.48979a15.82954,15.82954,0,0,0,1.82761.11463,16.09108,16.09108,0,0,0,1.8268-.113l1.04791,3.48816.092.30628a1.20125,1.20125,0,0,0,1.14938.85415,1.22912,1.22912,0,0,0,.34565-.05033,1.18959,1.18959,0,0,0,.8392-1.1101,1.17664,1.17664,0,0,0-.03539-.385L64.4837,63.08024a16.016,16.016,0,0,0,2.54839-.9496c.18427-.08548.37528-.15627.55614-.24865l1.76356,2.35316.34736.46343a1.19933,1.19933,0,1,0,1.91918-1.43885l-1.96846-2.62656a16.39044,16.39044,0,0,0,2.3495-2.05531L75.08888,60.873a1.2,1.2,0,1,0,1.43179-1.92625Z" fill="none"/><path d="M47.22025,41.97274l-11.05879-6.33a.35563.35563,0,0,0-.51986.40175l3.33523,12.298a.35557.35557,0,0,0,.662.06438l2.251-4.55824a.35576.35576,0,0,1,.24694-.19085l4.97873-1.02818A.3556.3556,0,0,0,47.22025,41.97274Z" fill="none"/><path d="M73.52476,56.72118A16.956,16.956,0,0,0,74.75963,54.683a1.19949,1.19949,0,0,0-2.13479-1.09443,14.1955,14.1955,0,0,1-3.27305,4.16851,13.98961,13.98961,0,0,1-2.1511,1.59829l-.00544.00259-.001.00114c-.05228.03061-.10959.05155-.16219.0815A13.44171,13.44171,0,0,1,51.14482,57.639a14.2363,14.2363,0,0,1-2.31971-2.71951,14.59926,14.59926,0,0,1-.7987-1.33089A1.19952,1.19952,0,0,0,45.89155,54.683,17.09956,17.09956,0,0,0,47.097,56.68384L44.2465,58.80142a1.20008,1.20008,0,0,0,1.4318,1.92632l2.9364-2.18146c.06722.0716.14206.13394.21041.20424a16.33438,16.33438,0,0,0,2.11831,1.85213L48.952,63.25973a1.14944,1.14944,0,0,0-.12688.26593,1.23066,1.23066,0,0,0,.36708,1.41313,1.19818,1.19818,0,0,0,1.67906-.24021l.27357-.36505,1.8514-2.47045A15.89953,15.89953,0,0,0,56.089,63.07253l-1.06991,3.56163a1.26019,1.26019,0,0,0,.80373,1.49512,1.22959,1.22959,0,0,0,.34565.05033,1.20033,1.20033,0,0,0,1.14947-.85415l.092-.30628,1.04832-3.48979a15.82954,15.82954,0,0,0,1.82761.11463,16.09108,16.09108,0,0,0,1.8268-.113l1.04791,3.48816.092.30628a1.20125,1.20125,0,0,0,1.14938.85415,1.22912,1.22912,0,0,0,.34565-.05033,1.18959,1.18959,0,0,0,.8392-1.1101,1.17664,1.17664,0,0,0-.03539-.385L64.4837,63.08024a16.016,16.016,0,0,0,2.54839-.9496c.18427-.08548.37528-.15627.55614-.24865l1.76356,2.35316.34736.46343a1.19933,1.19933,0,1,0,1.91918-1.43885l-1.96846-2.62656a16.39044,16.39044,0,0,0,2.3495-2.05531L75.08888,60.873a1.2,1.2,0,1,0,1.43179-1.92625Z" fill="none"/><path d="M87.55876,33.18025H33.17V87.60748H81.64577A5.95822,5.95822,0,0,0,87.59724,81.656V33.18025ZM41.88986,43.84866l-2.251,4.55824a.35557.35557,0,0,1-.662-.06438l-3.33523-12.298a.35563.35563,0,0,1,.51986-.40175l11.05879,6.33a.3556.3556,0,0,1-.10472.65689L42.1368,43.65781A.35576.35576,0,0,0,41.88986,43.84866ZM76.76794,60.62578a1.20066,1.20066,0,0,1-1.67906.24719l-3.08951-2.29511a16.39044,16.39044,0,0,1-2.3495,2.05531l1.96846,2.62656a1.19933,1.19933,0,1,1-1.91918,1.43885l-.34736-.46343L67.58823,61.882c-.18086.09238-.37187.16317-.55614.24865a16.016,16.016,0,0,1-2.54839.9496l1.06764,3.55392a1.17664,1.17664,0,0,1,.03539.385,1.18959,1.18959,0,0,1-.8392,1.1101,1.22912,1.22912,0,0,1-.34565.05033,1.20125,1.20125,0,0,1-1.14938-.85415l-.092-.30628L62.11261,63.531a16.09108,16.09108,0,0,1-1.8268.113,15.82954,15.82954,0,0,1-1.82761-.11463l-1.04832,3.48979-.092.30628a1.20033,1.20033,0,0,1-1.14947.85415,1.22959,1.22959,0,0,1-.34565-.05033,1.26019,1.26019,0,0,1-.80373-1.49512L56.089,63.07253a15.89953,15.89953,0,0,1-3.09275-1.20945l-1.8514,2.47045-.27357.36505a1.19818,1.19818,0,0,1-1.67906.24021,1.23066,1.23066,0,0,1-.36708-1.41313,1.14944,1.14944,0,0,1,.12688-.26593l1.99143-2.65708a16.33438,16.33438,0,0,1-2.11831-1.85213c-.06835-.0703-.14319-.13264-.21041-.20424l-2.9364,2.18146a1.20008,1.20008,0,0,1-1.4318-1.92632L47.097,56.68384A17.09956,17.09956,0,0,1,45.89155,54.683a1.19952,1.19952,0,0,1,2.13486-1.09443,14.59926,14.59926,0,0,0,.7987,1.33089A14.2363,14.2363,0,0,0,51.14482,57.639,13.44171,13.44171,0,0,0,67.03209,59.4406c.0526-.03.10991-.05089.16219-.0815l.001-.00114.00544-.00259a13.98961,13.98961,0,0,0,2.1511-1.59829,14.1955,14.1955,0,0,0,3.27305-4.16851A1.19949,1.19949,0,0,1,74.75963,54.683a16.956,16.956,0,0,1-1.23487,2.03818l2.99591,2.22554A1.20047,1.20047,0,0,1,76.76794,60.62578Z" fill="#d8d8d8"/><path d="M12.41117,60.39386h-.00836V82.74353c0,2.658,2.42483,4.81281,5.41611,4.81281H30.37769V60.39386H12.41117Z" fill="#d8d8d8"/><path d="M69.35179,30.38793H87.5461V17.94231a5.54983,5.54983,0,0,0-5.54989-5.54981H66.78774V30.38793h2.564Z" fill="#d8d8d8"/></svg>