<svg xmlns="http://www.w3.org/2000/svg" viewBox="0 0 100 100"><path d="M59.93028,71.75836a19.00978,19.00978,0,0,1-8.769-2.14615v15.118H67.04859V70.36846A18.98042,18.98042,0,0,1,59.93028,71.75836Z" fill="none"/><path d="M69.3683,84.73017H81.75555a3.015,3.015,0,0,0,3.01158-3.01166V69.37534H69.3683Z" fill="none"/><path d="M42.555,60.92516a1.97231,1.97231,0,0,1,0-1.78248,20.22759,20.22759,0,0,1,6.28665-7.27408v-.70023H33.40984V67.05563h13.9667A20.319,20.319,0,0,1,42.555,60.92516Z" fill="none"/><rect x="14.74608" y="51.16837" width="15.85609" height="9.33378" fill="none"/><path d="M77.3056,59.14268a1.973,1.973,0,0,1,0,1.78248A20.31874,20.31874,0,0,1,72.483,67.05563H84.76713V51.16837H69.96373A20.16978,20.16978,0,0,1,77.3056,59.14268Z" fill="none"/><path d="M51.16133,48.84866h4.29782a18.77719,18.77719,0,0,1,8.94276,0h2.64668V33.27H51.16133Z" fill="none"/><rect x="69.3683" y="33.27003" width="15.39883" height="15.57863" fill="none"/><path d="M30.60218,30.46245h.03247V14.75312H18.22824a3.48662,3.48662,0,0,0-3.48216,3.48216V30.64039h15.8561Z" fill="none"/><rect x="14.74608" y="32.9601" width="15.85609" height="15.88856" fill="none"/><path d="M54.6542,67.05563H65.20913a8.83414,8.83414,0,0,0,1.83946-1.87242V54.88642a8.77775,8.77775,0,0,0-15.88726,4.66742v.95821A8.77051,8.77051,0,0,0,54.6542,67.05563ZM54.299,58.48751a3.41469,3.41469,0,0,0,1.73215.56929,2.925,2.925,0,0,0,2.92293-2.92293,3.42035,3.42035,0,0,0-.56929-1.73215,7.09775,7.09775,0,0,1,1.54552-.23144h.01307a5.84964,5.84964,0,1,1-5.84781,5.8496A7.07484,7.07484,0,0,1,54.299,58.48751Z" fill="none"/><rect x="51.16133" y="14.75312" width="15.78588" height="15.70933" fill="none"/><rect x="32.95435" y="14.75312" width="15.88727" height="15.70933" fill="none"/><rect x="33.40984" y="69.37534" width="15.43178" height="15.35483" fill="none"/><path d="M67.04859,54.88642V65.18321a8.73705,8.73705,0,0,0,1.67476-5.14466V60.033A8.74055,8.74055,0,0,0,67.04859,54.88642Z" fill="#878787"/><path d="M48.84162,30.46245h2.31971V14.75312H66.9472v-2.3197h-48.719a5.80862,5.80862,0,0,0-5.80186,5.80186V60.50215h2.3197V51.16837h15.8561V48.84866H14.74608V32.9601h15.8561V30.64039H14.74608V18.23528a3.48662,3.48662,0,0,1,3.48216-3.48216H30.63465V30.46245h2.3197V14.75312H48.84162Z" fill="#878787"/><path d="M51.16133,48.84866V33.27H48.84162V48.84866H33.40984v2.31971H48.84162v.70023q.51676-.36665,1.05562-.70023c.41173-.25384.83385-.49031,1.26409-.71306a19.08835,19.08835,0,0,1,4.29782-1.60665Z" fill="#878787"/><path d="M69.3683,48.84866V33.27H67.04859V48.84866H64.40191a19.00443,19.00443,0,0,1,2.64668.84935,19.27369,19.27369,0,0,1,2.31971,1.11992c.20026.11389.39939.22956.59543.35044h14.8034V48.84866Z" fill="#878787"/><path d="M69.3683,69.24838c-.07257.04124-.14255.08661-.21569.127a19.24467,19.24467,0,0,1-2.104.99312V84.73017H69.3683V69.37534H84.76713V67.05563H72.483A19.69483,19.69483,0,0,1,69.3683,69.24838Z" fill="#878787"/><path d="M59.93028,68.828H59.934a8.73656,8.73656,0,0,0,5.27511-1.77233H54.6542A8.73926,8.73926,0,0,0,59.93028,68.828Z" fill="#878787"/><path d="M48.84162,68.199q-.75811-.53784-1.46508-1.14338H33.40984v2.31971H48.84162V84.73017h2.31971v-15.118c-.15188-.07866-.30523-.15423-.45492-.23687A19.54179,19.54179,0,0,1,48.84162,68.199Z" fill="#878787"/><path d="M59.93028,51.23988a8.788,8.788,0,0,0-8.769,8.314c-.00861.1596-.02419.31732-.02419.47911s.01558.31951.02419.4791a8.8043,8.8043,0,0,0,8.769,8.31591H59.934a8.73656,8.73656,0,0,0,5.27511-1.77233,8.83414,8.83414,0,0,0,1.83946-1.87242,8.73705,8.73705,0,0,0,1.67476-5.14466V60.033a8.81628,8.81628,0,0,0-8.79307-8.79307Zm.01307,14.62968a5.85013,5.85013,0,0,1-5.84781-5.84968,7.07484,7.07484,0,0,1,.20343-1.53237,3.41469,3.41469,0,0,0,1.73215.56929,2.925,2.925,0,0,0,2.92293-2.92293,3.42035,3.42035,0,0,0-.56929-1.73215,7.09775,7.09775,0,0,1,1.54552-.23144h.01307a5.84964,5.84964,0,0,1,0,11.69928Z" fill="none"/><path d="M42.10051,43.71745l4.51343-.93207a.32237.32237,0,0,0,.0949-.59551L36.68367,36.45156a.32235.32235,0,0,0-.47123.36416l2.92277,10.77751.10066.37106a.32241.32241,0,0,0,.60022.05837l.212-.42943,1.82851-3.70279A.32269.32269,0,0,1,42.10051,43.71745Z" fill="#d8d8d8"/><path d="M69.96373,51.16837c-.196-.12088-.39517-.23655-.59543-.35044A19.27369,19.27369,0,0,0,67.04859,49.698a19.03968,19.03968,0,0,0-15.88726.7573c-.43024.22275-.85236.45922-1.26409.71306q-.53953.33265-1.05562.70023A20.22759,20.22759,0,0,0,42.555,59.14268a1.97231,1.97231,0,0,0,0,1.78248,20.319,20.319,0,0,0,4.82157,6.13047q.70515.60725,1.46508,1.14338a19.54179,19.54179,0,0,0,1.86479,1.17633c.14969.08264.303.15821.45492.23687a18.95893,18.95893,0,0,0,15.88726.75625,19.24467,19.24467,0,0,0,2.104-.99312c.07314-.04035.14312-.08572.21569-.127A19.69483,19.69483,0,0,0,72.483,67.05563a20.31874,20.31874,0,0,0,4.82263-6.13047,1.973,1.973,0,0,0,0-1.78248A20.16978,20.16978,0,0,0,69.96373,51.16837Zm-1.24038,8.87018a8.73705,8.73705,0,0,1-1.67476,5.14466,8.83414,8.83414,0,0,1-1.83946,1.87242A8.73656,8.73656,0,0,1,59.934,68.828h-.00374a8.8043,8.8043,0,0,1-8.769-8.31591c-.00861-.15959-.02419-.31732-.02419-.4791s.01558-.31951.02419-.47911a8.78794,8.78794,0,0,1,17.562.47911Z" fill="#d8d8d8"/><path d="M59.94335,54.17028h-.01307a7.09775,7.09775,0,0,0-1.54552.23144,3.42035,3.42035,0,0,1,.56929,1.73215,2.925,2.925,0,0,1-2.92293,2.92293,3.41469,3.41469,0,0,1-1.73215-.56929,7.07484,7.07484,0,0,0-.20343,1.53237,5.84871,5.84871,0,1,0,5.84781-5.8496Z" fill="#d8d8d8"/><path d="M82.612,12.41637H66.9472V30.46245h-36.345v30.0397H12.42524V81.88387A5.69975,5.69975,0,0,0,18.125,87.58361H31.71024v-.04586H81.75555a5.81925,5.81925,0,0,0,5.81924-5.81924V17.37911A4.96274,4.96274,0,0,0,82.612,12.41637Zm2.15509,56.959V81.71851a3.015,3.015,0,0,1-3.01158,3.01166H33.40984V33.27H84.76713V69.37534Z" fill="#d8d8d8"/></svg>