<?xml version="1.0" encoding="utf-8"?>
<!-- Generator: Adobe Illustrator 25.0.1, SVG Export Plug-In . SVG Version: 6.00 Build 0)  -->
<svg version="1.1" xmlns="http://www.w3.org/2000/svg" xmlns:xlink="http://www.w3.org/1999/xlink" x="0px" y="0px"
	 viewBox="0 0 24 24" style="enable-background:new 0 0 24 24;" xml:space="preserve">
<style type="text/css">
	.st0{display:none;}
	.st1{display:inline;}
	.st2{fill:#1C1C1C;}
	.st3{display:inline;fill:#494949;}
	.st4{fill:none;stroke:#494949;stroke-width:1.000000e-02;stroke-miterlimit:10;}
	.st5{fill:none;stroke:#878787;stroke-width:0.8;stroke-linecap:round;stroke-miterlimit:10;}
	.st6{fill:none;stroke:#D8D8D8;stroke-width:1.5;stroke-miterlimit:10;}
	.st7{fill:none;stroke:#FFFFFF;stroke-width:0.25;stroke-miterlimit:10;}
	.st8{fill:none;stroke:#FFFFFF;stroke-width:2;stroke-linecap:round;stroke-miterlimit:10;}
	.st9{fill:#FFFFFF;}
</style>
<g id="Layer_2" class="st0">
	<g class="st1">
		<rect class="st2" width="24" height="24"/>
	</g>
</g>
<g id="Guides" class="st0">
	<g>
		<path class="st3" d="M12,0c6.6,0,12,5.4,12,12s-5.4,12-12,12S0,18.6,0,12S5.4,0,12,0 M12,0C8.8,0,5.8,1.2,3.5,3.5S0,8.8,0,12
			s1.2,6.2,3.5,8.5S8.8,24,12,24s6.2-1.2,8.5-3.5S24,15.2,24,12s-1.2-6.2-3.5-8.5S15.2,0,12,0L12,0z"/>
	</g>
	<line class="st4" x1="12" y1="0" x2="12" y2="24"/>
	<line class="st4" x1="24" y1="12" x2="0" y2="12"/>
</g>
<g id="GridFinder">
	<line class="st5" x1="3" y1="12" x2="6.4" y2="12"/>
	<line class="st5" x1="17.6" y1="12" x2="21" y2="12"/>
	<line class="st5" x1="12" y1="3" x2="12" y2="6.4"/>
	<line class="st5" x1="12" y1="17.6" x2="12" y2="21"/>
	<circle class="st6" cx="12" cy="12" r="9"/>
	<path class="st7" d="M0.2,2"/>
	<g id="Centre_Cross">
		<line class="st8" x1="12" y1="8.9" x2="12" y2="15.1"/>
		<line class="st8" x1="15.1" y1="12" x2="8.9" y2="12"/>
	</g>
	<g id="compass_arrows">
		<path id="n" class="st9" d="M12,1.5c0.5,0,1.1,0.1,1.6,0.1L12,0l-1.6,1.6C10.9,1.5,11.5,1.5,12,1.5z"/>
		<path id="e" class="st9" d="M23.9,12l-1.5-1.5c0.1,0.5,0.1,1,0.1,1.5s-0.1,1-0.1,1.5L23.9,12z"/>
		<path id="w" class="st9" d="M1.5,12c0-0.5,0-1,0.1-1.5L0.1,12l1.5,1.5C1.5,13,1.5,12.5,1.5,12z"/>
		<path id="s" class="st9" d="M12,22.5c-0.5,0-1,0-1.5-0.1l1.5,1.5l1.5-1.5C13,22.5,12.5,22.5,12,22.5z"/>
	</g>
</g>
</svg>
