<?xml version="1.0" encoding="UTF-8"?>
<svg xmlns:xlink="http://www.w3.org/1999/xlink" xmlns="http://www.w3.org/2000/svg" id="screenshot" viewBox="-0.4295529105447713 -0.04754590558218297 20.047021780707837 18.095091811163798" width="20.047021780707837" height="18.095091811163798">
  <g id="shape-a668e0a0-c18e-11eb-b2e4-7b70d3885ac1">
    <g>
      <g id="shape-a66f2230-c18e-11eb-b2e4-7b70d3885ac1">
        <path d="M2.3893166962061514,7.172977486434775C2.428008535116078,7.245181730944864,2.5301077675148917,7.303567150392041,2.6169359099494613,7.303567150392041C2.6172329535952485,7.303567150392041,2.6166388663045836,7.303567150392041,2.6169359099494613,7.303567150392041C2.7034974747548404,7.271935824480806,2.8040353238902753,7.24366201361056,2.8421178425023754,7.172977486434775L3.6311876281420155,5.418940944567794L5.520842201667165,4.687002665662476C5.597883136819291,4.651236294911541,5.660376549861667,4.557084504713316,5.660833540084695,4.47714030447753C5.660224219787324,4.3986097947853295,5.599292190007873,4.299651456739184,5.523127152784127,4.264309193151348L3.6418507333532943,3.5362585632408354L3.626617725909,3.5221216578056556L2.8421178425023754,1.7797480629226357C2.8040353238902753,1.70764984520315,2.7034974747548404,1.6496885329190718,2.6170501575056733,1.6489816876473924C2.616753113860341,1.6489816876473924,2.617347201150551,1.6489816876473924,2.6170501575056733,1.6489816876473924C2.53026009758878,1.6489816876473924,2.4279323700784516,1.7071903957765926,2.3892786136875657,1.7793946402865686L1.6010085609386806,3.5327243368819836L-0.28940766295863796,4.264309193151348C-0.3667151757413194,4.303185683097922,-0.42955133145096625,4.395075568426591,-0.42955133145096625,4.444554737449494C-0.42955133145096625,4.524640306739684,-0.3666390107036932,4.619463599946016,-0.2893314979214665,4.655371339751241L1.6010847259753973,5.386956196020606L2.3893166962061514,7.172977486434775ZZM7.491993365022154,2.182649867824466L7.964978246182454,3.235142477471868C7.987066106977636,3.3104214989140246,8.047998136756632,3.3454103398661346,8.101313662813482,3.3454103398661346C8.15462918887033,3.3454103398661346,8.214304495535089,3.310276595633354,8.237496749369711,3.266985856964652L8.71063396060481,2.182649867824466L9.844731364868494,1.7436989540628929C9.89115395505678,1.7221613786324497,9.928931813519739,1.6652037866342653,9.928931813519739,1.6171736504181808C9.928931813519739,1.5689314606207745,9.891146338552517,1.5123131543530235,9.844731364868494,1.4907897158279866L8.71063396060481,1.083505470241107L8.238410729816678,0.030906833802873734C8.215561218649327,-0.012451055166707192,8.120354922119532,-0.04744696457134978,8.101313662813482,-0.04744696457134978C8.082272403507432,-0.04744696457134978,7.987066106977636,-0.012451055166707192,7.964216595810285,0.030906833802873734L7.491993365022154,1.083505470241107L6.357134310385845,1.5224563840025667C6.311435288051598,1.5440151647912899,6.273352769439498,1.6005627865318957,6.273352769439498,1.6171736504181808C6.273352769439498,1.6652037866342653,6.311138244406266,1.722175515537856,6.357477053053117,1.7436989540628929L7.491993365022154,2.182649867824466ZZM19.080503778640377,1.6489816876473924L17.788744747323108,0.44946526147430177C17.07507834853459,-0.213202180798703,15.91736978273093,-0.213202180798703,15.20370338394332,0.44939457694715657L0.6546579734313127,13.951623642592267C-0.0593892505430631,14.613937662229318,-0.0593892505430631,15.687989052665444,0.6545094516086465,16.350656494938335L1.9466493081126828,17.550526343747265C2.6603157069007466,18.21319378602027,3.8180242727039513,18.21319378602027,4.531690671492015,17.55066417857529L19.080503778640377,4.048721385265253C19.79645512854495,3.385347097720455,19.79645512854495,2.311649129920397,19.080503778640377,1.6489816876473924ZZM13.345276475679839,6.572159005440653L12.483469079491442,5.772363580446722L16.49736654119124,2.047288998282852L17.360316412938573,2.847084423276897L13.345276475679839,6.572159005440653ZZM18.928173704192886,13.311928671651572L17.040423256597933,12.581404083289726L16.249449345027188,10.82595385087916C16.209081875299034,10.75668301424696,16.110067326907938,10.696601166147616,16.02247753410029,10.696601166147616C15.935611309146225,10.696601166147616,15.834007149489935,10.754986585594565,15.795315310580008,10.827190830104769L15.007007175311628,12.581227371971863L13.116590951414764,13.313165650877067C13.039397686188295,13.349073390682292,12.976599612997234,13.443225180880404,12.97644728292289,13.523628830542975C12.976595804745557,13.603573030778648,13.03943576870688,13.698820431148079,13.116590951414764,13.734657486426272L15.004341399009263,14.46518207478789L15.795315310580008,16.220632307198457C15.832064941040244,16.291281492110784,15.934887741292641,16.351363340210128,16.02247753410029,16.351363340210128C16.10919142898001,16.351363340210128,16.21071942359913,16.29283655170866,16.249411262508147,16.220632307198457L17.037719397776527,14.466595765331363L18.928516446859703,13.734657486426272C19.005709712085718,13.698820431148079,19.068507785277234,13.60413850699615,19.06866011535203,13.524194306760364C19.06907902305693,13.442695046926701,19.004338741416632,13.350805161598146,18.928173704192886,13.311928671651572ZZ" style="fill: rgb(255, 255, 255); fill-opacity: 0.4;"></path>
      </g>
    </g>
  </g>
</svg>
