<svg xmlns="http://www.w3.org/2000/svg" id="icon" viewBox="0 0 1024 1024" height="800" width="800"><g fill="hsla(0,0%,100%,1)"><rect height="110%" width="110%" fill="hsla(0,0%,100%,0)" x="-1" y="-1" /><path d="M516.85,47.15c122.87,0,238.39,47.85,325.27,134.73s134.73,202.4,134.73,325.27v9.7c0,122.87-47.85,238.39-134.73,325.27S639.72,976.85,516.85,976.85h-9.7c-122.87,0-238.39-47.85-325.27-134.73S47.15,639.72,47.15,516.85v-9.7c0-122.87,47.85-238.39,134.73-325.27S384.28,47.15,507.15,47.15h9.7M517.12,0H506.88C226.94,0,0,226.94,0,506.88v10.24C0,797.06,226.94,1024,506.88,1024h10.24C797.06,1024,1024,797.06,1024,517.12V506.88C1024,226.94,797.06,0,517.12,0Z"/><path fill-rule="evenodd" d="M544,152.23c-8.74-.85-20.86-2.11-28.22-3.84C487.45,99.13,458.87,112.9,420.9,95.8c97.53-1.16,170.73,36,198.8,85.93,32,17.35,40.94,38.6,57.72,61.57h-1.28c-38.95-29.62-98.93-44.2-133.39-83.37A23.42,23.42,0,0,0,544,152.23Z"/><path fill-rule="evenodd" d="M401.4,139.11c50.49-2.43,87.84,24.35,130.82,46.17v2.56c-15,2.08-24.75,14-39.76,16.68-49.35-20.66-63.06,1.19-91.41-6.37-60.67-4.06-104.67,11.12-158.82,27.69-72.24,31.07-62,42-101.19,63.33v-1.29h1.28c22.61-57.35,61.6-75.76,106.27-91.67C318,149.19,357.82,147.52,401.4,139.11Z"/><path fill-rule="evenodd" d="M741.64,153.09c76.5,34.53,102,305.74,76.69,297.86-27.61-29.66-56.62-72.22-74.79-110.21,9.91-14.86,21-21,17.06-48.84,16-16.65,5.2-18.85,7.15-26.77,11.9-8.9,2.6-15-.73-25.81,4-1.93,5.53-4,10.26-5.13a66,66,0,0,0,7.7,5.13C760.27,178.64,751,163.86,741.64,153.09Z"/><path fill-rule="evenodd" d="M629.86,156.25c36.65,11.91,66.15,39.52,89.2,69.7,9.75,20.6,6,25.21,19.06,36.64,3.57,16.12,16.46,48.89.52,58.33h-2.56c-5.45-25.07-29.18-33-36.19-52.72-2.68-35.8-1.78-27.47-18.74-46.54C660.23,168.12,645.75,174.22,629.86,156.25Z"/><path d="M558.05,856.65c-16.49-32.77-77.28-34.55-133.58-30.28-23.23-6.24-88.61-8.48-122.48-164.53-2.15-24.77,15.85-47.33,11.2-66-8-36.13-47.61-64-25.06-103,8.14-52.42-10.19-38.76,63.52-90.21,49.39,3.65,25.32,6.86,78-26.46,14.42-3.62,45.5-9.49,51.6,6.73,30.86,12.11,59.94,28.08,88.11,41.83l1.65-.86c-6.17-20.89-29.55-26-47.38-36.05C490.1,355,442.8,341,393.48,340c-157.41-21-209.66,194-191.88,76.36,0-2.57.45-7.72.45-7.72-37.6,60.17-57.72,154.76-26.1,228.32,5.49,17.4,45.33,98.48,60.55,101.86-11.56-31.38-36.44-107-36.38-143.78,0-21.38,3.35-28,8.3-62.67,6.61-18.17,22.36-22.59,22.36-22.59-5,25.33-12.53,99.46,5.72,131.59-1,20.45,9.84,29.87,19.82,67.72,13.26,63.24,40.08,111.71,104.86,123.86-7.22.81-13.81,1.53-19.54,2-38.54,7.69-99-39.77-131.14-71.36-10.1-10-20.18-23.41-23.08-37.2,8.36,67,97.25,157.38,182.8,148.42,55.36-13.82,152.19-51.67,187.35,30.45,1.33,1.91,12,12.09,18.81,13.8,5-.55,8.11-.95,10.15-3.38C559.47,902.23,592.69,898.35,558.05,856.65Z"/><path fill-rule="evenodd" d="M91.16,558.75c-7.6-42,3.51-108.9,17-136.57,9.78-41.37,35.42-75.63,62.13-109.32,29-34.6,50.59-31.42,76.16-44.4,30.38-17.32,58.68-33.33,91.07-42l11.54,1.28c1.67,3.1,2.31,3.63,2.56,9-2.36,3.42-.85,9.12,0,12.82,6.61,2.61,36.6-3.22,49.45-6.89,82.73-17.64,158.76,8.76,198.45,74.12,57.58,92.45,48.14,126.51,11,182.43,10.32-113-76.52-107.1-102.24-142.07-52.16-55.1-89.63-64.19-154.4-49.11-63.56,16.69-115.38,35.46-142,89-6.61-15.59,6.42-42.76,18-56.44-74.2,27.16-104,204.39-97.37,257.75,6.73,53.91,51.2,177,51.2,177h-2.57S122.54,732.17,91.16,558.75Z"/><path fill-rule="evenodd" d="M522.25,490.7c-155.82.22-133.53,129.53-172.94,106.7C266.93,533.61,291.47,390.7,410.09,426c5.85-.55,6.83-.69,12.38-4.57,25.73-35.2,71.28-9.26,107.34-.05C571.94,432,592.45,454.27,592,496.31c15.84,43.6.83,46.19-.53,73.91H581.24C549.72,524.52,575.78,513.32,522.25,490.7Z"/><path d="M931,404c-27.21,17.17-3.88,33.68-44.51,105.94h-2.56c11.12-69.11,23.44-48.58-2.57-197.51-9.15,16.72,9.4,43.94-15.39,93.63v2.56c-10.16-8.41,2.79-64.71-7.69-126.86-9-36.94-51-141.46-115.43-141.2C850.9,177.23,857.5,400.2,848,536.88c-8.52-12.36-5.27-46.66-12.83-59-.1-5.77-.8-7-2.56-10.26h-3.85c-2.09,11-1.74,33.64-9,41-6.7-11.5-13-25.15-24.37-32.06-13,0-18.41,12.39-19.24,24.37-8.12-13.79-.27-35.45-30.78-78.24-51.91-12-38,.4-64.13-56.43,0-10,3.57-10.17,10.26-12.83,4.05-22.35-36.39-90-64.12-96.19,23.67,25,29,60.41,43.6,88.49-18.11,31.58-13.91,10.31-1.17,71,5.38,39.86-14.61,3.82-36,104.57-12.17,21.85-17.8-3.58-24.81,37.43-9.08,23.79-34.64,3.05-18.86,78.14-1,1.32-.47.31-1.28,2.56h-1.28c-35.12-28.73-11-30.32-32.82-81.38-6.63-13.08-18.2-17.35-30.89-30.62-14.73-15.22-11.27-19-41.46-13.69,12.6,3.89,26.14,10,24.36,24.37,1.45,5.42,3.48,7.59,7.37,8.8,54.9,16.77,25.37,78.39,20.85,116.89l6.41,9c9,2.53,24.15,8.89,32.07,1.28l3.85,1.28c2.63,4.63,3.31,31.31,12.82,25.66h5.13c3.88,10.44,7.28,22.12,14.11,28.21,14.61,1.37,37.66,15.67,50,2.57-14.15-3.7-22.63-5.94-32.06-23.09,10.59-6.49,21.61,2.9,30.78-10.26-8.57,1.27-32.18-8.36-41-14.11.87-6.78,1.37-15.13,0-21.8a60.18,60.18,0,0,0,6.41-7.7h5.13c-1.06-5.7-3.57-6.71-7.7-9,8.84-6.27,12,4.35,31.45-14.47-11.57,4.8-18.66-.38-25-7.34,7.32-36.74,35.88-51.43,60.28-78.24,5.41-17.56,4.2-42.06,22.94-50.22,7.31-5.43,6.39-21.78,13-28,18,40.31,4.19,37.15-2.57,88.5,15.08,29.4,14.18,57.56,15.39,88.49-5.63.92-7.12,2.47-14.1,2.57,1.22,4.7,1.89,6.19,6.41,7.69-.43,1.29-.86,2.57-1.28,3.85-4,.95-5.77,2-10.26,2.57v3.84c4,2.59,6.59,6.09,11.54,7.7v1.28a20.54,20.54,0,0,0-6.41,6.41c-9.23,2.12-20.34,1.61-34.63,0,2.31,12.18,31.85,21.11,48.73,20.53-1.31,1-.31.47-2.56,1.28,2.08,10,7.9,6.36,11.54,11.54-1.25,9.36,5.37,15.63,10.26,21.81,1.4,14.68-40.28,7.85-47.45,7.69,16.78,13.81,38.1,24.91,74.39,10.26,19,16,21.62-6.79,33.34,21.8,15-.16,19.54-4.4,26.94-11.54-8-23-6.76-21.11.11-46.66C838.7,679,859.63,608.07,892.72,551c18.12-35.29,48.32-75,34.71-118.57C926.13,419.53,930.23,407,931,404ZM791.44,608.3c-18.39-11-5-52.85,15-76.4C824.47,540.59,824.47,557.1,791.44,608.3Z"/><path fill-rule="evenodd" d="M451.49,876.65c31.9-5.49,54.46,9.77,70.43,12.71,2.87.55-76.13,11.08-89.45-14.1C434.6,875.26,443,877.34,451.49,876.65Z"/></g></svg>