<?xml version="1.0" encoding="utf-8"?>
<!-- Generator: Adobe Illustrator 25.0.1, SVG Export Plug-In . SVG Version: 6.00 Build 0)  -->
<svg version="1.1" id="Layer_1" xmlns="http://www.w3.org/2000/svg" xmlns:xlink="http://www.w3.org/1999/xlink" x="0px" y="0px"
	 viewBox="0 0 24 24" style="enable-background:new 0 0 24 24;" xml:space="preserve">
<style type="text/css">
	.st0{display:none;fill:none;}
	.st1{display:none;fill:#FFFFFF;}
	.st2{fill:#FFFFFF;}
	.st3{display:none;}
	.st4{display:inline;fill:#FFFFFF;}
</style>
<path class="st0" d="M0,0h24v24H0V0z"/>
<path class="st1" d="M20,11H7.8l5.6-5.6L12,4l-8,8l8,8l1.4-1.4L7.8,13H20V11z"/>
<g id="Layer_2_1_">
	<g id="Layer_1-2">
		<g id="Pen_With_Line">
			<path id="Stroke_2" class="st2" d="M12,8.9l1.1-1.1c-0.6-0.6-1.1-1.2-1.5-1.9c-0.7-1-0.8-2.2-0.2-3.3c0.7-1.1,1.8-1.8,3.1-2.1
				c-1.4,0-2.7,0.7-3.6,1.7c-0.5,0.6-0.7,1.3-0.7,2.1c0,0.7,0.1,1.4,0.4,2.1C10.9,7.4,11.4,8.2,12,8.9z"/>
			<path id="Stroke_1" class="st2" d="M17.8,12l-1.5,1.5c0.5,0.5,0.7,1.2,0.7,1.9c-0.1,0.4-0.3,0.8-0.6,1.1
				c-0.1,0.2-0.3,0.3-0.5,0.5c-0.2,0.1-0.4,0.3-0.6,0.3c-1.1,0.4-2.2,0.7-3.4,0.7l0,0L8.7,21c1.1,0,2.3-0.1,3.4-0.2
				c1.5-0.2,2.9-0.6,4.2-1.2c0.4-0.2,0.7-0.4,1.1-0.7c0.2-0.1,0.3-0.3,0.5-0.5c0.2-0.2,0.3-0.3,0.4-0.5c0.6-0.7,0.9-1.6,1-2.5
				c0-0.9-0.2-1.8-0.7-2.5C18.3,12.7,18.1,12.3,17.8,12z"/>
			<g id="Pen">
				<path class="st2" d="M4.4,17.3V21H8l10.9-10.8l-3.7-3.6L4.4,17.3z M21.7,7.3c0.4-0.4,0.4-1,0-1.4l-2.3-2.3c-0.4-0.4-1-0.4-1.4,0
					l-1.8,1.8l3.7,3.7L21.7,7.3z"/>
			</g>
		</g>
	</g>
</g>
<g class="st3">
	<path class="st4" d="M12,0c6.6,0,12,5.4,12,12s-5.4,12-12,12S0,18.6,0,12S5.4,0,12,0 M12-1C4.8-1-1,4.8-1,12s5.8,13,13,13
		s13-5.8,13-13S19.2-1,12-1L12-1z"/>
</g>
</svg>
