<svg xmlns="http://www.w3.org/2000/svg" viewBox="0 0 18 20.77"><g id="Layer_2" data-name="Layer 2"><g id="Layer_1-2" data-name="Layer 1"><g id="Pen_With_Line" data-name="Pen With Line"><path id="Stroke_2" data-name="Stroke 2" d="M7.83,8.48,8.92,7.39a9.26,9.26,0,0,1-1.48-1.9A3.31,3.31,0,0,1,7.2,2.13,5,5,0,0,1,10.31,0a5.07,5.07,0,0,0-3.7,1.74,3.67,3.67,0,0,0-.74,2.11A5.59,5.59,0,0,0,6.3,6,10.16,10.16,0,0,0,7.83,8.48Z"/><path id="Stroke_1" data-name="Stroke 1" d="M13.65,11.57,12.12,13.1A2.79,2.79,0,0,1,12.85,15a2.33,2.33,0,0,1-.61,1.09,2.61,2.61,0,0,1-.51.46,3.32,3.32,0,0,1-.65.35,12.26,12.26,0,0,1-3.48.74h0L4.47,20.76a28.56,28.56,0,0,0,3.46-.2,13.83,13.83,0,0,0,4.3-1.2,7,7,0,0,0,1.08-.67,5.43,5.43,0,0,0,.51-.46c.16-.17.28-.32.41-.48a4.64,4.64,0,0,0,1-2.52,4.41,4.41,0,0,0-.76-2.59A8.33,8.33,0,0,0,13.65,11.57Z"/><g id="Pen"><path d="M0,17v3.75H3.75L14.81,9.71,11.06,6ZM17.71,6.81a1,1,0,0,0,0-1.41L15.37,3.06a1,1,0,0,0-1.41,0L12.13,4.89l3.75,3.75Z"/></g></g></g></g></svg>