<?xml version="1.0" encoding="UTF-8"?>
<svg xmlns:xlink="http://www.w3.org/1999/xlink" xmlns="http://www.w3.org/2000/svg" id="screenshot" viewBox="0.0755513473695828 -1.1047711723222164e-7 21.011923757998375 19.499995769339193" width="21.011923757998375" height="19.499995769339193">
  <g id="shape-63ddd010-c18e-11eb-b2e4-7b70d3885ac1">
    <g>
      <g id="shape-63e486d0-c18e-11eb-b2e4-7b70d3885ac1">
        <path d="M2.3268291602794307,16.714281715579887L0.8259775118995094,16.714281715579887C0.40972568754386884,16.714281715579887,0.07555168770932141,17.023321815478994,0.07555168770932141,17.410710109718593L0.07555168770932141,18.80356689799612C0.07555168770932141,19.190955192235833,0.40972568754386884,19.499995292134827,0.8259775118995094,19.499995292134827L2.3268291602794307,19.499995292134827C2.7433154927048236,19.499995292134827,3.077254984469164,19.190955192235833,3.077254984469164,18.80356689799612L3.077254984469164,17.410710109718593C3.077254984469164,17.023321815478994,2.7433154927048236,16.714281715579887,2.3268291602794307,16.714281715579887ZZM0.8259775118995094,6.964284197637426L2.3268291602794307,6.964284197637426C2.7433154927048236,6.964284197637426,3.077254984469164,6.655244097738432,3.077254984469164,6.267855803498833L3.077254984469164,4.874999015221306C3.077254984469164,4.487610720981593,2.7433154927048236,4.178570621082599,2.3268291602794307,4.178570621082599L0.8259775118995094,4.178570621082599C0.40972568754386884,4.178570621082599,0.07555168770932141,4.487610720981593,0.07555168770932141,4.874999015221306L0.07555168770932141,6.267855803498833C0.07555168770932141,6.655244097738432,0.40972568754386884,6.964284197637426,0.8259775118995094,6.964284197637426ZZM14.3336423473188,2.7857138328049587L15.834493995698722,2.7857138328049587C16.25191836040449,2.7857138328049587,16.58491981988891,2.47580319741337,16.58491981988891,2.0892854386663657L16.58491981988891,0.6964286503887251C16.58491981988891,0.3099108916417208,16.25191836040449,2.5625013222452253e-7,15.834493995698722,2.5625013222452253e-7L14.3336423473188,2.5625013222452253e-7C13.916217982613489,2.5625013222452253e-7,13.583216523128613,0.3099108916417208,13.583216523128613,0.6964286503887251L13.583216523128613,2.0892854386663657C13.583216523128613,2.47580319741337,13.916217982613489,2.7857138328049587,14.3336423473188,2.7857138328049587ZZM2.3268291602794307,12.53571135074742L0.8259775118995094,12.53571135074742C0.40972568754386884,12.53571135074742,0.07555168770932141,12.844751450646527,0.07555168770932141,13.232139744886126L0.07555168770932141,14.624996533163767C0.07555168770932141,15.012384827403366,0.40972568754386884,15.32142492730236,0.8259775118995094,15.32142492730236L2.3268291602794307,15.32142492730236C2.7433154927048236,15.32142492730236,3.077254984469164,15.012384827403366,3.077254984469164,14.624996533163767L3.077254984469164,13.232139744886126C3.077254984469164,12.844751450646527,2.7433154927048236,12.53571135074742,2.3268291602794307,12.53571135074742ZZM5.328532457039273,2.7857138328049587L6.82938410541874,2.7857138328049587C7.246808470124961,2.7857138328049587,7.579809929608928,2.47580319741337,7.579809929608928,2.0892854386663657L7.579809929608928,0.6964286503887251C7.579809929608928,0.3099108916417208,7.246808470124961,2.5625013222452253e-7,6.82938410541874,2.5625013222452253e-7L5.328532457039273,2.5625013222452253e-7C4.911108092333507,2.5625013222452253e-7,4.578106632849085,0.3099108916417208,4.578106632849085,0.6964286503887251L4.578106632849085,2.0892854386663657C4.578106632849085,2.47580319741337,4.911108092333507,2.7857138328049587,5.328532457039273,2.7857138328049587ZZM0.8259775118995094,2.7857138328049587L2.3268291602794307,2.7857138328049587C2.7433154927048236,2.7857138328049587,3.077254984469164,2.47580319741337,3.077254984469164,2.0892854386663657L3.077254984469164,0.6964286503887251C3.077254984469164,0.3099108916417208,2.7433154927048236,2.5625013222452253e-7,2.3268291602794307,2.5625013222452253e-7L0.8259775118995094,2.5625013222452253e-7C0.40972568754386884,2.5625013222452253e-7,0.07555168770932141,0.3099108916417208,0.07555168770932141,0.6964286503887251L0.07555168770932141,2.0892854386663657C0.07555168770932141,2.47580319741337,0.40972568754386884,2.7857138328049587,0.8259775118995094,2.7857138328049587ZZM15.834493995698722,16.714281715579887L14.3336423473188,16.714281715579887C13.91739052296407,16.714281715579887,13.583216523128613,17.02440998484485,13.583216523128613,17.410710109718593L13.583216523128613,18.80356689799612C13.583216523128613,19.189867022869976,13.91739052296407,19.499995292134827,14.3336423473188,19.499995292134827L15.834493995698722,19.499995292134827C16.250745820053908,19.499995292134827,16.58491981988891,19.189867022869976,16.58491981988891,18.80356689799612L16.58491981988891,17.410710109718593C16.58491981988891,17.023321815478994,16.25191836040449,16.714281715579887,15.834493995698722,16.714281715579887ZZM20.337048940839395,4.178570621082599L18.83619729245902,4.178570621082599C18.418772927753253,4.178570621082599,18.08577146826883,4.487610720981593,18.08577146826883,4.874999015221306L18.08577146826883,6.267855803498833C18.08577146826883,6.655244097738432,18.418772927753253,6.964284197637426,18.83619729245902,6.964284197637426L20.337048940839395,6.964284197637426C20.75447330554516,6.964284197637426,21.08747476502913,6.655244097738432,21.08747476502913,6.267855803498833L21.08747476502913,4.874999015221306C21.08747476502913,4.487610720981593,20.75447330554516,4.178570621082599,20.337048940839395,4.178570621082599ZZM20.337048940839395,2.5625013222452253e-7L18.83619729245902,2.5625013222452253e-7C18.418772927753253,2.5625013222452253e-7,18.08577146826883,0.3099108916417208,18.08577146826883,0.6964286503887251L18.08577146826883,2.0892854386663657C18.08577146826883,2.47580319741337,18.418772927753253,2.7857138328049587,18.83619729245902,2.7857138328049587L20.337048940839395,2.7857138328049587C20.75447330554516,2.7857138328049587,21.08747476502913,2.47580319741337,21.08747476502913,2.0892854386663657L21.08747476502913,0.6964286503887251C21.08747476502913,0.3099108916417208,20.75447330554516,2.5625013222452253e-7,20.337048940839395,2.5625013222452253e-7ZZM19.586623116649207,8.357140985915066L12.082364874749146,8.357140985915066L12.082364874749146,1.3536829473572425C12.082364874749146,0.6237389367506694,11.411671794379345,2.5625013222452253e-7,10.581513226369225,2.5625013222452253e-7C9.75135465835865,2.5625013222452253e-7,9.080661577989304,0.6237389367506694,9.080661577989304,1.3536829473572425L9.080661577989304,8.357140985915066L1.5341918834783428,8.357140985915066C0.7476518164994559,8.357140985915066,0.07555168770932141,8.979573863176483,0.07555168770932141,9.74999777419248C0.07555168770932141,10.520421685208476,0.7476518164994559,11.142854562469893,1.5341918834783428,11.142854562469893L9.080661577989304,11.142854562469893L9.080661577989304,18.107138503857414C9.080661577989304,18.87756241487341,9.75135465835865,19.499995292134827,10.581513226369225,19.499995292134827C11.411671794379345,19.499995292134827,12.082364874749146,18.87625661163429,12.082364874749146,18.146312601027603L12.082364874749146,11.142854562469893L19.586623116649207,11.142854562469893C20.416781684659327,11.142854562469893,21.08747476502913,10.520421685208476,21.08747476502913,9.74999777419248C21.08747476502913,8.979573863176483,20.416781684659327,8.357140985915066,19.586623116649207,8.357140985915066ZZM6.82938410541874,16.714281715579887L5.328532457039273,16.714281715579887C4.911108092333507,16.714281715579887,4.578106632849085,17.023321815478994,4.578106632849085,17.410710109718593L4.578106632849085,18.80356689799612C4.578106632849085,19.190955192235833,4.911108092333507,19.499995292134827,5.328532457039273,19.499995292134827L6.82938410541874,19.499995292134827C7.246808470124961,19.499995292134827,7.579809929608928,19.190955192235833,7.579809929608928,18.80356689799612L7.579809929608928,17.410710109718593C7.579809929608928,17.023321815478994,7.246808470124961,16.714281715579887,6.82938410541874,16.714281715579887ZZM20.337048940839395,12.53571135074742L18.83619729245902,12.53571135074742C18.419945468103833,12.53571135074742,18.08577146826883,12.845839620012384,18.08577146826883,13.232139744886126L18.08577146826883,14.624996533163767C18.08577146826883,15.011296658037509,18.419945468103833,15.32142492730236,18.83619729245902,15.32142492730236L20.337048940839395,15.32142492730236C20.75330076519458,15.32142492730236,21.08747476502913,15.011296658037509,21.08747476502913,14.624996533163767L21.08747476502913,13.232139744886126C21.08747476502913,12.844751450646527,20.75447330554516,12.53571135074742,20.337048940839395,12.53571135074742ZZM20.337048940839395,16.714281715579887L18.83619729245902,16.714281715579887C18.419945468103833,16.714281715579887,18.08577146826883,17.02440998484485,18.08577146826883,17.410710109718593L18.08577146826883,18.80356689799612C18.08577146826883,19.189867022869976,18.419945468103833,19.499995292134827,18.83619729245902,19.499995292134827L20.337048940839395,19.499995292134827C20.75330076519458,19.499995292134827,21.08747476502913,19.189867022869976,21.08747476502913,18.80356689799612L21.08747476502913,17.410710109718593C21.08747476502913,17.023321815478994,20.75447330554516,16.714281715579887,20.337048940839395,16.714281715579887ZZ" style="fill: rgb(255, 255, 255); fill-opacity: 0.4;"></path>
      </g>
    </g>
  </g>
</svg>
