<svg xmlns="http://www.w3.org/2000/svg" viewBox="0 0 128.61 134.61"><defs><style>.cls-1{fill:none;}.cls-2{fill:#fff;}</style></defs><g id="Layer_2" data-name="Layer 2"><g id="d10"><polygon class="cls-1" points="59.3 115.16 59.3 78.98 37.77 67.55 17.47 70.83 59.3 115.16"/><polygon class="cls-1" points="90.83 67.55 69.3 78.98 69.3 115.16 111.14 70.83 90.83 67.55"/><polygon class="cls-1" points="35.36 57.81 50.52 28.75 20.89 60.15 35.36 57.81"/><polygon class="cls-1" points="64.3 23.95 45.36 60.26 64.3 70.31 83.24 60.26 64.3 23.95"/><polygon class="cls-1" points="78.08 28.75 93.24 57.81 107.71 60.15 78.08 28.75"/><polygon class="cls-1" points="114.27 67.51 114.46 67.3 114.33 67.16 114.27 67.51"/><polygon class="cls-1" points="14.28 67.16 14.14 67.3 14.34 67.51 14.28 67.16"/><path class="cls-2" d="M64.3,0,0,67.3l64.3,67.31L128.61,67.3Zm0,70.32L45.36,60.26,64.3,24,83.24,60.26ZM35.36,57.81,20.89,60.15l29.63-31.4Zm2.41,9.74L59.3,79v36.18L17.47,70.83ZM69.3,79,90.83,67.55l20.31,3.28L69.3,115.16ZM93.24,57.81,78.08,28.74l29.63,31.41Zm-79,9.35.06.35-.2-.21Zm100,.35.06-.35.13.14Z"/></g></g></svg>