<svg xmlns="http://www.w3.org/2000/svg" viewBox="0 0 134.38 141.3"><defs><style>.cls-1{fill:none;}.cls-2{fill:#fff;}</style></defs><g id="Layer_2" data-name="Layer 2"><g id="d12"><polygon class="cls-1" points="41.57 96.69 30.73 62.95 10 57.06 10 89.23 28.69 114.96 41.57 96.69"/><polygon class="cls-1" points="33.68 53.4 62.19 32.45 62.19 12.14 31.84 22 13.25 47.59 33.68 53.4"/><polygon class="cls-1" points="72.19 32.45 100.7 53.4 121.13 47.59 102.54 22 72.19 12.14 72.19 32.45"/><polygon class="cls-1" points="67.19 41.19 40.53 60.77 50.74 92.53 83.64 92.53 93.85 60.77 67.19 41.19"/><polygon class="cls-1" points="84.69 102.53 49.69 102.53 36.75 120.89 67.19 130.78 97.64 120.89 84.69 102.53"/><polygon class="cls-1" points="103.65 62.95 92.81 96.69 105.69 114.96 124.38 89.23 124.38 57.06 103.65 62.95"/><path class="cls-2" d="M108.72,13.49,67.19,0,25.67,13.49,0,48.82V92.48L25.67,127.8l41.52,13.5,41.53-13.5,25.66-35.32V48.82Zm12.41,34.1-20.43,5.8L72.19,32.45V12.14L102.54,22ZM83.64,92.53H50.74L40.53,60.77,67.19,41.19,93.85,60.77ZM31.84,22l30.35-9.86V32.45L33.68,53.39l-20.43-5.8ZM10,57.06,30.73,63,41.57,96.69,28.69,115,10,89.23Zm26.75,63.83,12.93-18.36h35l12.93,18.36-30.44,9.89ZM105.69,115,92.81,96.69,103.65,63l20.73-5.89V89.23Z"/></g></g></svg>