<svg xmlns="http://www.w3.org/2000/svg" xmlns:xlink="http://www.w3.org/1999/xlink" viewBox="0 0 117.99 136.23"><defs><style>.cls-1{fill:none;}.cls-2{clip-path:url(#clip-path);}.cls-3{fill:#fff;}</style><clipPath id="clip-path" transform="translate(0 0)"><rect class="cls-1" width="117.99" height="136.23"/></clipPath></defs><g id="Layer_2" data-name="Layer 2"><g id="d20"><g id="Artwork_3" data-name="Artwork 3"><g class="cls-2"><g class="cls-2"><path class="cls-3" d="M115.75,32.77a0,0,0,0,0,0,0L59,0,2.25,32.76h0L2,32.91,0,34.06v68.12L56.52,134.8l.38.23,2.09,1.2,2.06-1.18.42-.25L118,102.18V34.06Zm-11,3.84L89.65,45.27,72.33,17.91ZM80.16,46.8H37.83L59,13.36ZM45.66,17.9,28.34,45.27,13.27,36.61ZM8.84,44.25l15.07,8.68L8.84,81.68ZM30,60.38,51.16,97.05,11.58,95.48Zm24.59,63.1L22.12,104.74,54.57,106ZM59,92.94,37.45,55.63H80.53Zm4.42,30.54V106l32.46-1.28Zm3.41-26.43L88,60.37l18.4,35.11Zm42.33-15.37L94.08,52.93l15.07-8.68Z" transform="translate(0 0)"/></g></g></g></g></g></svg>