<svg xmlns="http://www.w3.org/2000/svg" viewBox="0 0 117.14 135.7"><defs><style>.cls-1{fill:none;}.cls-2{fill:#fff;}</style></defs><g id="Layer_2" data-name="Layer 2"><g id="d6"><polygon class="cls-1" points="53.66 70.69 9.82 45.3 9.82 96.09 53.66 121.48 53.66 70.69"/><polygon class="cls-1" points="58.57 62.16 102.41 36.77 58.57 11.38 14.73 36.77 58.57 62.16"/><polygon class="cls-1" points="63.48 70.69 63.48 121.48 107.32 96.09 107.32 45.3 63.48 70.69"/><path class="cls-2" d="M58.57,0,0,33.93v67.85L58.57,135.7l58.57-33.92V33.93Zm43.84,36.77L58.57,62.16,14.73,36.77,58.57,11.38ZM9.82,45.3,53.66,70.7v50.78L9.82,96.09Zm53.66,76.18V70.69L107.32,45.3V96.09Z"/></g></g></svg>